
<svg width="338px" height="225px" viewBox="0 0 338 225" version="1.1" xmlns="http://www.w3.org/2000/svg" xmlns:xlink="http://www.w3.org/1999/xlink">
    <g id="Page-1" stroke="none" stroke-width="1" fill="none" fill-rule="evenodd">
        <g id="Artboard" transform="translate(-81, -138)">
            <g id="Group" transform="translate(81, 138)">
                <polygon id="Triangle" fill="#FFFFFF" points="200 0 338 225 62 225"></polygon>
                <path d="M252.393,116.496 C258.240333,116.496 263.532333,118.75 268.269,123.258 L265.574,125.855 C263.614,123.960333 261.466167,122.506667 259.1305,121.494 C256.794833,120.481333 254.385667,119.975 251.903,119.975 C249.420333,119.975 246.937667,120.644667 244.455,121.984 C241.972333,123.323333 240.036833,125.128167 238.6485,127.3985 C237.260167,129.668833 236.566,132.127 236.566,134.773 C236.566,138.889 238.1095,142.474167 241.1965,145.5285 C244.2835,148.582833 248.146333,150.11 252.785,150.11 C256.313,150.11 259.342833,149.121833 261.8745,147.1455 C264.406167,145.169167 265.917,142.482333 266.407,139.085 L256.177804,139.085533 C257.130985,138.227758 257.7827,137.041524 257.954716,135.705061 L270.376,135.704 C270.278,141.29 268.612,145.642833 265.378,148.7625 C262.144,151.882167 257.913667,153.442 252.687,153.442 C246.676333,153.442 241.866167,151.596333 238.2565,147.905 C234.646833,144.213667 232.842,139.877167 232.842,134.8955 C232.842,129.913833 234.638667,125.601833 238.232,121.9595 C241.825333,118.317167 246.545667,116.496 252.393,116.496 Z M252.5,124 C257.892347,124 262.378456,127.880062 263.318732,133.000591 L259.210108,132.999954 C258.349544,130.108489 255.671004,128 252.5,128 C248.634007,128 245.5,131.134007 245.5,135 C245.5,138.698085 248.367685,141.726386 252.000613,141.982461 L252,142 L260.984849,142.001001 C258.967259,144.443432 255.915407,146 252.5,146 C246.424868,146 241.5,141.075132 241.5,135 C241.5,128.924868 246.424868,124 252.5,124 Z M252.5,133 C253.604569,133 254.5,133.895431 254.5,135 C254.5,136.104569 253.604569,137 252.5,137 C251.395431,137 250.5,136.104569 250.5,135 C250.5,133.895431 251.395431,133 252.5,133 Z" id="Combined-Shape" fill="#D20000"></path>
                <text id="ESP-TA" font-family="STHeitiTC-Light, Heiti TC" font-size="49" font-weight="300" letter-spacing="14.7" fill="#B4B4B4">
                    <tspan x="0.2" y="154.5">ESP-TA</tspan>
                </text>
                <rect id="Rectangle" fill="#44D7B6" x="0" y="104" width="115" height="3" rx="1.5"></rect>
                <rect id="Rectangle-Copy" fill="#44D7B6" x="111" y="157" width="95" height="3" rx="1.5"></rect>
            </g>
        </g>
    </g>
</svg>
